mtllib red.mtl
v 0.833034 -1.753294 -0.450141
v -1.148059 -1.455303 -0.430471
v -0.886149 0.305224 -1.351760
v 1.109069 0.004640 -1.393741
v 1.109069 0.004640 -1.393741
v 1.255221 0.910813 0.400952
v 0.990639 -0.845014 1.324737
v 0.833034 -1.753294 -0.450141
v 0.898734 2.844067 1.666355
v -1.175877 -0.599631 1.596591
v -1.148059 -1.455303 -0.430471
v -1.175877 -0.599631 1.596591
v 0.898734 2.844067 1.666355
v -0.886149 0.305224 -1.351760
v -1.148059 -1.455303 -0.430471
v 0.898734 2.844067 1.666355
vt 0.976641 1.000000
vt 0.716261 0.993559
vt 0.723494 0.733117
vt 0.985813 0.738310
vt 0.488817 1.000000
vt 0.273402 0.850760
vt 0.498406 0.720052
vt 0.640675 0.868642
vt 0.000000 0.717986
vt 0.476103 0.502161
vt 0.676206 0.273066
vt 0.474542 0.475958
vt 0.000000 0.256723
vt 0.509285 0.073001
vt 0.680448 0.655226
vt 0.849034 0.354466
vn 0.283155 -0.794813 -0.536745
vn -0.808884 -0.587843 0.012155
vn -0.414048 0.046104 -0.909087
vn 0.845781 0.083955 -0.526884
vn 0.845781 0.083955 -0.526884
vn 0.885836 0.082881 0.456537
vn 0.631831 -0.539391 0.556639
vn 0.283155 -0.794813 -0.536745
vn -0.098591 0.992013 -0.078677
vn -0.079349 -0.188014 0.978956
vn -0.808884 -0.587843 0.012155
vn -0.079349 -0.188014 0.978956
vn -0.098591 0.992013 -0.078677
vn -0.414048 0.046104 -0.909087
vn -0.808884 -0.587843 0.012155
vn -0.098591 0.992013 -0.078677
usemtl default
f 1/1/1 2/2/2 3/3/3
f 1/1/1 3/3/3 4/4/4
f 5/5/5 6/6/6 7/7/7
f 5/5/5 7/7/7 8/8/8
f 6/6/6 9/9/9 10/10/10
f 6/6/6 10/10/10 7/7/7
f 11/11/11 12/12/12 13/13/13
f 11/11/11 13/13/13 14/14/14
f 15/15/15 8/8/8 7/7/7
f 15/15/15 7/7/7 10/10/10
f 9/9/9 6/6/6 5/5/5
f 16/16/16 4/4/4 3/3/3
